<svg xmlns="http://www.w3.org/2000/svg" xmlns:xlink="http://www.w3.org/1999/xlink" width="512" zoomAndPan="magnify" viewBox="0 0 384 383.999986" height="512" preserveAspectRatio="xMidYMid meet" version="1.0"><defs><clipPath id="177f30116d"><path d="M 38.398438 32.828125 L 231 32.828125 L 231 225 L 38.398438 225 Z M 38.398438 32.828125 " clip-rule="nonzero"/></clipPath><clipPath id="daee2b621e"><path d="M 153 159 L 345.898438 159 L 345.898438 350.828125 L 153 350.828125 Z M 153 159 " clip-rule="nonzero"/></clipPath></defs><rect x="-38.4" width="460.8" fill="#ffffff" y="-38.399999" height="460.799983" fill-opacity="1"/><rect x="-38.4" width="460.8" fill="#6610f2" y="-38.399999" height="460.799983" fill-opacity="1"/><rect x="-38.4" width="460.8" fill="#6610f2" y="-38.399999" height="460.799983" fill-opacity="1"/><path fill="#ffd700" d="M 163.691406 181.035156 L 82.296875 181.035156 L 82.296875 170.066406 L 163.683594 170.066406 C 168.414062 170.066406 172.597656 167.046875 174.089844 162.5625 L 185.824219 127.347656 C 186.28125 125.984375 186.511719 124.558594 186.511719 123.117188 C 186.511719 115.726562 180.503906 109.722656 173.117188 109.722656 L 149.960938 109.722656 L 151.410156 103.070312 C 152.863281 96.402344 153.601562 89.414062 153.601562 82.296875 C 153.601562 80.347656 153.542969 78.425781 153.429688 76.535156 C 153.25 73.621094 150.707031 71.328125 147.632812 71.328125 C 144.761719 71.328125 142.308594 73.382812 141.933594 76.101562 C 138.746094 99.132812 125.5 115.214844 109.71875 115.214844 L 82.292969 115.214844 L 82.292969 104.246094 L 109.71875 104.246094 C 119.554688 104.246094 128.734375 91.507812 131.070312 74.609375 C 132.183594 66.484375 139.304688 60.359375 147.632812 60.359375 C 156.496094 60.359375 163.851562 67.175781 164.375 75.878906 C 164.5 77.996094 164.570312 80.136719 164.570312 82.296875 C 164.570312 87.871094 164.164062 93.382812 163.355469 98.757812 L 173.121094 98.757812 C 186.554688 98.757812 197.484375 109.6875 197.484375 123.121094 C 197.484375 125.746094 197.0625 128.339844 196.230469 130.828125 L 184.496094 166.035156 C 181.507812 175.011719 173.144531 181.035156 163.683594 181.035156 Z M 163.691406 181.035156 " fill-opacity="1" fill-rule="nonzero"/><path fill="#ffd700" d="M 104.242188 109.726562 L 115.214844 109.726562 L 115.214844 175.546875 L 104.242188 175.546875 Z M 104.242188 109.726562 " fill-opacity="1" fill-rule="nonzero"/><g clip-path="url(#177f30116d)"><path fill="#ffd700" d="M 134.410156 224.914062 C 81.480469 224.914062 38.417969 181.851562 38.417969 128.921875 C 38.417969 75.996094 81.480469 32.9375 134.410156 32.9375 C 156.476562 32.9375 177.035156 40.074219 193.875 53.570312 L 187.015625 62.132812 C 172.140625 50.210938 153.953125 43.910156 134.410156 43.910156 C 87.527344 43.910156 49.386719 82.054688 49.386719 128.933594 C 49.386719 175.816406 87.527344 213.957031 134.410156 213.957031 C 181.289062 213.957031 219.429688 175.816406 219.429688 128.933594 C 219.429688 109.574219 213.03125 91.378906 200.914062 76.308594 L 209.464844 69.429688 C 223.164062 86.472656 230.40625 107.050781 230.40625 128.929688 C 230.40625 181.855469 187.34375 224.921875 134.414062 224.921875 Z M 134.410156 224.914062 " fill-opacity="1" fill-rule="nonzero"/></g><path fill="#ffd700" d="M 236.367188 323.652344 C 227.503906 323.652344 220.148438 316.832031 219.625 308.128906 C 219.5 306.011719 219.429688 303.871094 219.429688 301.710938 C 219.429688 296.136719 219.835938 290.625 220.644531 285.253906 L 210.878906 285.253906 C 197.445312 285.253906 186.515625 274.324219 186.515625 260.886719 C 186.515625 258.265625 186.9375 255.667969 187.769531 253.179688 L 199.503906 217.972656 C 202.496094 209 210.855469 202.976562 220.316406 202.976562 L 301.703125 202.976562 L 301.703125 213.945312 L 220.316406 213.945312 C 215.585938 213.945312 211.40625 216.960938 209.910156 221.445312 L 198.175781 256.660156 C 197.71875 258.023438 197.492188 259.449219 197.492188 260.894531 C 197.492188 268.28125 203.5 274.289062 210.886719 274.289062 L 234.039062 274.289062 L 232.59375 280.941406 C 231.136719 287.609375 230.402344 294.597656 230.402344 301.710938 C 230.402344 303.660156 230.457031 305.585938 230.574219 307.472656 C 230.75 310.386719 233.292969 312.679688 236.367188 312.679688 C 239.238281 312.679688 241.691406 310.628906 242.066406 307.90625 C 245.257812 284.875 258.503906 268.792969 274.28125 268.792969 L 301.710938 268.792969 L 301.710938 279.765625 L 274.28125 279.765625 C 264.445312 279.765625 255.269531 292.503906 252.929688 309.402344 C 251.816406 317.523438 244.695312 323.652344 236.367188 323.652344 Z M 236.367188 323.652344 " fill-opacity="1" fill-rule="nonzero"/><path fill="#ffd700" d="M 268.800781 208.460938 L 279.769531 208.460938 L 279.769531 274.28125 L 268.800781 274.28125 Z M 268.800781 208.460938 " fill-opacity="1" fill-rule="nonzero"/><g clip-path="url(#daee2b621e)"><path fill="#ffd700" d="M 249.597656 351.078125 C 196.667969 351.078125 153.605469 308.015625 153.605469 255.085938 C 153.605469 248.519531 154.273438 241.960938 155.585938 235.597656 L 166.332031 237.820312 C 165.164062 243.460938 164.574219 249.269531 164.574219 255.085938 C 164.574219 301.96875 202.714844 340.109375 249.597656 340.109375 C 296.476562 340.109375 334.621094 301.96875 334.621094 255.085938 C 334.621094 208.207031 296.476562 170.066406 249.597656 170.066406 C 238.046875 170.066406 226.832031 172.339844 216.28125 176.835938 L 211.988281 166.746094 C 223.898438 161.667969 236.550781 159.09375 249.597656 159.09375 C 302.523438 159.09375 345.589844 202.160156 345.589844 255.085938 C 345.589844 308.015625 302.523438 351.078125 249.597656 351.078125 Z M 249.597656 351.078125 " fill-opacity="1" fill-rule="nonzero"/></g></svg>