<svg xmlns="http://www.w3.org/2000/svg" xmlns:xlink="http://www.w3.org/1999/xlink" width="253" zoomAndPan="magnify" viewBox="0 0 189.75 34.499999" height="46" preserveAspectRatio="xMidYMid meet" version="1.0"><defs><g/><clipPath id="d55fd4c61b"><path d="M 1.230469 0 L 37.457031 0 L 37.457031 34 L 1.230469 34 Z M 1.230469 0 " clip-rule="nonzero"/></clipPath></defs><g fill="#ffd700" fill-opacity="1"><g transform="translate(43.569407, 20.620888)"><g><path d="M 3.515625 -11.703125 L 3.515625 -2.34375 L 7.546875 -2.34375 L 7.546875 0 L 0.84375 0 L 0.84375 -11.703125 Z M 3.515625 -11.703125 "/></g></g></g><g fill="#ffd700" fill-opacity="1"><g transform="translate(51.583938, 20.620888)"><g><path d="M 1.09375 -11.328125 C 1.382812 -11.628906 1.734375 -11.78125 2.140625 -11.78125 C 2.546875 -11.78125 2.894531 -11.628906 3.1875 -11.328125 C 3.476562 -11.035156 3.625 -10.6875 3.625 -10.28125 C 3.625 -9.875 3.476562 -9.523438 3.1875 -9.234375 C 2.894531 -8.941406 2.546875 -8.796875 2.140625 -8.796875 C 1.734375 -8.796875 1.382812 -8.941406 1.09375 -9.234375 C 0.800781 -9.523438 0.65625 -9.875 0.65625 -10.28125 C 0.65625 -10.6875 0.800781 -11.035156 1.09375 -11.328125 Z M 0.84375 -7.28125 L 0.84375 0 L 3.359375 0 L 3.359375 -7.28125 Z M 0.84375 -7.28125 "/></g></g></g><g fill="#ffd700" fill-opacity="1"><g transform="translate(55.867816, 20.620888)"><g><path d="M 9.171875 -7.28125 L 5.703125 -3.796875 L 9.5 0 L 6.265625 0 L 3.359375 -2.90625 L 3.359375 0 L 0.84375 0 L 0.84375 -12.203125 L 3.359375 -12.203125 L 3.359375 -4.734375 L 5.90625 -7.28125 Z M 9.171875 -7.28125 "/></g></g></g><g fill="#ffd700" fill-opacity="1"><g transform="translate(65.031333, 20.620888)"><g><path d="M 8.21875 -3.296875 L 2.9375 -3.296875 C 2.9375 -2.785156 3.101562 -2.40625 3.4375 -2.15625 C 3.769531 -1.90625 4.128906 -1.78125 4.515625 -1.78125 C 4.921875 -1.78125 5.238281 -1.832031 5.46875 -1.9375 C 5.707031 -2.050781 5.976562 -2.269531 6.28125 -2.59375 L 8.09375 -1.6875 C 7.34375 -0.414062 6.085938 0.21875 4.328125 0.21875 C 3.234375 0.21875 2.289062 -0.15625 1.5 -0.90625 C 0.71875 -1.664062 0.328125 -2.570312 0.328125 -3.625 C 0.328125 -4.6875 0.71875 -5.59375 1.5 -6.34375 C 2.289062 -7.101562 3.234375 -7.484375 4.328125 -7.484375 C 5.484375 -7.484375 6.421875 -7.148438 7.140625 -6.484375 C 7.867188 -5.816406 8.234375 -4.863281 8.234375 -3.625 C 8.234375 -3.457031 8.226562 -3.347656 8.21875 -3.296875 Z M 3 -4.6875 L 5.78125 -4.6875 C 5.71875 -5.0625 5.566406 -5.347656 5.328125 -5.546875 C 5.085938 -5.753906 4.773438 -5.859375 4.390625 -5.859375 C 3.984375 -5.859375 3.65625 -5.75 3.40625 -5.53125 C 3.15625 -5.3125 3.019531 -5.03125 3 -4.6875 Z M 3 -4.6875 "/></g></g></g><g fill="#ffd700" fill-opacity="1"><g transform="translate(73.584897, 20.620888)"><g/></g></g><g fill="#ffd700" fill-opacity="1"><g transform="translate(77.457404, 20.620888)"><g><path d="M 0.84375 -11.703125 L 4.234375 -11.703125 C 5.867188 -11.703125 7.257812 -11.144531 8.40625 -10.03125 C 9.5625 -8.925781 10.140625 -7.535156 10.140625 -5.859375 C 10.140625 -4.171875 9.566406 -2.769531 8.421875 -1.65625 C 7.273438 -0.550781 5.878906 0 4.234375 0 L 0.84375 0 Z M 3.515625 -2.390625 L 3.9375 -2.390625 C 4.90625 -2.390625 5.695312 -2.71875 6.3125 -3.375 C 6.9375 -4.03125 7.253906 -4.851562 7.265625 -5.84375 C 7.265625 -6.832031 6.953125 -7.660156 6.328125 -8.328125 C 5.710938 -8.992188 4.914062 -9.328125 3.9375 -9.328125 L 3.515625 -9.328125 Z M 3.515625 -2.390625 "/></g></g></g><g fill="#ffd700" fill-opacity="1"><g transform="translate(87.925941, 20.620888)"><g><path d="M 1.09375 -11.328125 C 1.382812 -11.628906 1.734375 -11.78125 2.140625 -11.78125 C 2.546875 -11.78125 2.894531 -11.628906 3.1875 -11.328125 C 3.476562 -11.035156 3.625 -10.6875 3.625 -10.28125 C 3.625 -9.875 3.476562 -9.523438 3.1875 -9.234375 C 2.894531 -8.941406 2.546875 -8.796875 2.140625 -8.796875 C 1.734375 -8.796875 1.382812 -8.941406 1.09375 -9.234375 C 0.800781 -9.523438 0.65625 -9.875 0.65625 -10.28125 C 0.65625 -10.6875 0.800781 -11.035156 1.09375 -11.328125 Z M 0.84375 -7.28125 L 0.84375 0 L 3.359375 0 L 3.359375 -7.28125 Z M 0.84375 -7.28125 "/></g></g></g><g fill="#ffd700" fill-opacity="1"><g transform="translate(92.209818, 20.620888)"><g><path d="M 4.015625 -7.484375 C 4.429688 -7.484375 4.84375 -7.4375 5.25 -7.34375 C 5.65625 -7.25 5.957031 -7.15625 6.15625 -7.0625 L 6.453125 -6.921875 L 5.625 -5.28125 C 5.0625 -5.582031 4.523438 -5.734375 4.015625 -5.734375 C 3.734375 -5.734375 3.53125 -5.703125 3.40625 -5.640625 C 3.289062 -5.578125 3.234375 -5.460938 3.234375 -5.296875 C 3.234375 -5.253906 3.238281 -5.210938 3.25 -5.171875 C 3.257812 -5.140625 3.273438 -5.101562 3.296875 -5.0625 C 3.328125 -5.03125 3.351562 -5.003906 3.375 -4.984375 C 3.40625 -4.960938 3.445312 -4.9375 3.5 -4.90625 C 3.5625 -4.875 3.609375 -4.851562 3.640625 -4.84375 C 3.671875 -4.832031 3.722656 -4.8125 3.796875 -4.78125 C 3.878906 -4.75 3.9375 -4.726562 3.96875 -4.71875 C 4.007812 -4.707031 4.070312 -4.6875 4.15625 -4.65625 C 4.25 -4.625 4.320312 -4.601562 4.375 -4.59375 C 4.664062 -4.507812 4.921875 -4.414062 5.140625 -4.3125 C 5.359375 -4.207031 5.585938 -4.066406 5.828125 -3.890625 C 6.066406 -3.710938 6.25 -3.484375 6.375 -3.203125 C 6.507812 -2.929688 6.578125 -2.617188 6.578125 -2.265625 C 6.578125 -0.609375 5.429688 0.21875 3.140625 0.21875 C 2.617188 0.21875 2.125 0.140625 1.65625 -0.015625 C 1.1875 -0.179688 0.847656 -0.347656 0.640625 -0.515625 L 0.328125 -0.765625 L 1.34375 -2.484375 C 1.425781 -2.421875 1.523438 -2.34375 1.640625 -2.25 C 1.765625 -2.15625 1.988281 -2.03125 2.3125 -1.875 C 2.632812 -1.71875 2.914062 -1.640625 3.15625 -1.640625 C 3.675781 -1.640625 3.9375 -1.816406 3.9375 -2.171875 C 3.9375 -2.328125 3.867188 -2.453125 3.734375 -2.546875 C 3.597656 -2.640625 3.367188 -2.738281 3.046875 -2.84375 C 2.734375 -2.957031 2.488281 -3.0625 2.3125 -3.15625 C 1.851562 -3.394531 1.492188 -3.660156 1.234375 -3.953125 C 0.972656 -4.253906 0.84375 -4.65625 0.84375 -5.15625 C 0.84375 -5.882812 1.125 -6.453125 1.6875 -6.859375 C 2.257812 -7.273438 3.035156 -7.484375 4.015625 -7.484375 Z M 4.015625 -7.484375 "/></g></g></g><g fill="#ffd700" fill-opacity="1"><g transform="translate(99.188846, 20.620888)"><g><path d="M 0.84375 0 L 0.84375 -12.203125 L 3.359375 -12.203125 L 3.359375 0 Z M 0.84375 0 "/></g></g></g><g fill="#ffd700" fill-opacity="1"><g transform="translate(103.401791, 20.620888)"><g><path d="M 1.09375 -11.328125 C 1.382812 -11.628906 1.734375 -11.78125 2.140625 -11.78125 C 2.546875 -11.78125 2.894531 -11.628906 3.1875 -11.328125 C 3.476562 -11.035156 3.625 -10.6875 3.625 -10.28125 C 3.625 -9.875 3.476562 -9.523438 3.1875 -9.234375 C 2.894531 -8.941406 2.546875 -8.796875 2.140625 -8.796875 C 1.734375 -8.796875 1.382812 -8.941406 1.09375 -9.234375 C 0.800781 -9.523438 0.65625 -9.875 0.65625 -10.28125 C 0.65625 -10.6875 0.800781 -11.035156 1.09375 -11.328125 Z M 0.84375 -7.28125 L 0.84375 0 L 3.359375 0 L 3.359375 -7.28125 Z M 0.84375 -7.28125 "/></g></g></g><g fill="#ffd700" fill-opacity="1"><g transform="translate(107.685668, 20.620888)"><g><path d="M 9.171875 -7.28125 L 5.703125 -3.796875 L 9.5 0 L 6.265625 0 L 3.359375 -2.90625 L 3.359375 0 L 0.84375 0 L 0.84375 -12.203125 L 3.359375 -12.203125 L 3.359375 -4.734375 L 5.90625 -7.28125 Z M 9.171875 -7.28125 "/></g></g></g><g fill="#ffd700" fill-opacity="1"><g transform="translate(116.849185, 20.620888)"><g><path d="M 8.21875 -3.296875 L 2.9375 -3.296875 C 2.9375 -2.785156 3.101562 -2.40625 3.4375 -2.15625 C 3.769531 -1.90625 4.128906 -1.78125 4.515625 -1.78125 C 4.921875 -1.78125 5.238281 -1.832031 5.46875 -1.9375 C 5.707031 -2.050781 5.976562 -2.269531 6.28125 -2.59375 L 8.09375 -1.6875 C 7.34375 -0.414062 6.085938 0.21875 4.328125 0.21875 C 3.234375 0.21875 2.289062 -0.15625 1.5 -0.90625 C 0.71875 -1.664062 0.328125 -2.570312 0.328125 -3.625 C 0.328125 -4.6875 0.71875 -5.59375 1.5 -6.34375 C 2.289062 -7.101562 3.234375 -7.484375 4.328125 -7.484375 C 5.484375 -7.484375 6.421875 -7.148438 7.140625 -6.484375 C 7.867188 -5.816406 8.234375 -4.863281 8.234375 -3.625 C 8.234375 -3.457031 8.226562 -3.347656 8.21875 -3.296875 Z M 3 -4.6875 L 5.78125 -4.6875 C 5.71875 -5.0625 5.566406 -5.347656 5.328125 -5.546875 C 5.085938 -5.753906 4.773438 -5.859375 4.390625 -5.859375 C 3.984375 -5.859375 3.65625 -5.75 3.40625 -5.53125 C 3.15625 -5.3125 3.019531 -5.03125 3 -4.6875 Z M 3 -4.6875 "/></g></g></g><g fill="#ffd700" fill-opacity="1"><g transform="translate(125.402749, 20.620888)"><g/></g></g><g fill="#ffd700" fill-opacity="1"><g transform="translate(129.275256, 20.620888)"><g><path d="M 7.625 -11.703125 L 7.625 -9.359375 L 3.515625 -9.359375 L 3.515625 -7.03125 L 7.3125 -7.03125 L 7.3125 -4.703125 L 3.515625 -4.703125 L 3.515625 0 L 0.84375 0 L 0.84375 -11.703125 Z M 7.625 -11.703125 "/></g></g></g><g fill="#ffd700" fill-opacity="1"><g transform="translate(137.318158, 20.620888)"><g><path d="M 1.53125 -0.859375 C 0.726562 -1.578125 0.328125 -2.5 0.328125 -3.625 C 0.328125 -4.757812 0.75 -5.6875 1.59375 -6.40625 C 2.4375 -7.125 3.472656 -7.484375 4.703125 -7.484375 C 5.929688 -7.484375 6.960938 -7.117188 7.796875 -6.390625 C 8.628906 -5.671875 9.046875 -4.75 9.046875 -3.625 C 9.046875 -2.507812 8.632812 -1.585938 7.8125 -0.859375 C 7 -0.140625 5.960938 0.21875 4.703125 0.21875 C 3.398438 0.21875 2.34375 -0.140625 1.53125 -0.859375 Z M 3.484375 -4.859375 C 3.160156 -4.546875 3 -4.132812 3 -3.625 C 3 -3.125 3.15625 -2.710938 3.46875 -2.390625 C 3.78125 -2.078125 4.191406 -1.921875 4.703125 -1.921875 C 5.191406 -1.921875 5.59375 -2.082031 5.90625 -2.40625 C 6.226562 -2.726562 6.390625 -3.132812 6.390625 -3.625 C 6.390625 -4.132812 6.222656 -4.546875 5.890625 -4.859375 C 5.566406 -5.179688 5.171875 -5.34375 4.703125 -5.34375 C 4.210938 -5.34375 3.804688 -5.179688 3.484375 -4.859375 Z M 3.484375 -4.859375 "/></g></g></g><g fill="#ffd700" fill-opacity="1"><g transform="translate(146.69445, 20.620888)"><g><path d="M 0.84375 0 L 0.84375 -7.28125 L 3.359375 -7.28125 L 3.359375 -6.234375 L 3.390625 -6.234375 C 3.410156 -6.265625 3.441406 -6.304688 3.484375 -6.359375 C 3.523438 -6.421875 3.613281 -6.519531 3.75 -6.65625 C 3.894531 -6.800781 4.046875 -6.929688 4.203125 -7.046875 C 4.367188 -7.160156 4.578125 -7.257812 4.828125 -7.34375 C 5.085938 -7.4375 5.351562 -7.484375 5.625 -7.484375 C 5.894531 -7.484375 6.160156 -7.445312 6.421875 -7.375 C 6.691406 -7.300781 6.890625 -7.226562 7.015625 -7.15625 L 7.203125 -7.03125 L 6.15625 -4.90625 C 5.84375 -5.175781 5.410156 -5.3125 4.859375 -5.3125 C 4.546875 -5.3125 4.28125 -5.242188 4.0625 -5.109375 C 3.851562 -4.972656 3.703125 -4.8125 3.609375 -4.625 C 3.515625 -4.4375 3.445312 -4.273438 3.40625 -4.140625 C 3.375 -4.003906 3.359375 -3.898438 3.359375 -3.828125 L 3.359375 0 Z M 0.84375 0 "/></g></g></g><g fill="#ffd700" fill-opacity="1"><g transform="translate(153.758579, 20.620888)"><g/></g></g><g fill="#ffd700" fill-opacity="1"><g transform="translate(157.631087, 20.620888)"><g><path d="M 9.828125 0 L 7.953125 -6.5625 L 6.09375 0 L 3.125 0 L -0.21875 -11.703125 L 2.75 -11.703125 L 4.75 -3.671875 L 4.828125 -3.671875 L 6.953125 -11.703125 L 8.96875 -11.703125 L 11.09375 -3.671875 L 11.171875 -3.671875 L 13.171875 -11.703125 L 16.109375 -11.703125 L 12.78125 0 Z M 9.828125 0 "/></g></g></g><g fill="#ffd700" fill-opacity="1"><g transform="translate(173.532476, 20.620888)"><g><path d="M 0.84375 -11.703125 L 5.125 -11.703125 C 6.3125 -11.703125 7.273438 -11.394531 8.015625 -10.78125 C 8.753906 -10.164062 9.125 -9.269531 9.125 -8.09375 C 9.125 -6.925781 8.75 -6.007812 8 -5.34375 C 7.25 -4.675781 6.289062 -4.34375 5.125 -4.34375 L 3.515625 -4.34375 L 3.515625 0 L 0.84375 0 Z M 3.515625 -6.46875 L 4.265625 -6.46875 C 4.867188 -6.46875 5.359375 -6.585938 5.734375 -6.828125 C 6.117188 -7.066406 6.3125 -7.460938 6.3125 -8.015625 C 6.3125 -8.578125 6.117188 -8.976562 5.734375 -9.21875 C 5.359375 -9.457031 4.867188 -9.578125 4.265625 -9.578125 L 3.515625 -9.578125 Z M 3.515625 -6.46875 "/></g></g></g><g clip-path="url(#d55fd4c61b)"><path fill="#ffd700" d="M 10.847656 0.00390625 C 5.550781 0.00390625 1.25 4.300781 1.25 9.597656 C 1.25 20.375 12.121094 23.199219 19.527344 33.851562 C 26.527344 23.265625 37.800781 20.027344 37.800781 9.597656 C 37.800781 4.300781 33.503906 0.00390625 28.207031 0.00390625 C 24.363281 0.00390625 21.058594 2.273438 19.527344 5.535156 C 17.992188 2.273438 14.6875 0.00390625 10.847656 0.00390625 Z M 10.847656 0.00390625 " fill-opacity="1" fill-rule="nonzero"/></g></svg>